<svg xmlns="http://www.w3.org/2000/svg" viewBox="0 0 1200 675" preserveAspectRatio="xMidYMid slice"><rect width="1200" height="675" fill="url(#bg)"/><defs><linearGradient id="bg" x1="0" y1="0" x2="1" y2="1"><stop offset="0" stop-color="#0B1830"/><stop offset="0.5" stop-color="#13294B"/><stop offset="1" stop-color="#0A1326"/></linearGradient><radialGradient id="vig" cx="0.5" cy="0.42" r="0.78"><stop offset="0.55" stop-color="#000" stop-opacity="0"/><stop offset="1" stop-color="#050b16" stop-opacity="0.82"/></radialGradient><radialGradient id="gl"><stop offset="0" stop-color="#E6C36B" stop-opacity="0.85"/><stop offset="1" stop-color="#E6C36B" stop-opacity="0"/></radialGradient></defs><g transform="translate(820,120)"><circle r="380" fill="#5B8CFF" opacity="0.16"/></g><line x1="0" y1="0" x2="0" y2="675" stroke="#6E84AE" stroke-width="1" opacity="0.06"/><line x1="60" y1="0" x2="60" y2="675" stroke="#6E84AE" stroke-width="1" opacity="0.06"/><line x1="120" y1="0" x2="120" y2="675" stroke="#6E84AE" stroke-width="1" opacity="0.06"/><line x1="180" y1="0" x2="180" y2="675" stroke="#6E84AE" stroke-width="1" opacity="0.06"/><line x1="240" y1="0" x2="240" y2="675" stroke="#6E84AE" stroke-width="1" opacity="0.06"/><line x1="300" y1="0" x2="300" y2="675" stroke="#6E84AE" stroke-width="1" opacity="0.06"/><line x1="360" y1="0" x2="360" y2="675" stroke="#6E84AE" stroke-width="1" opacity="0.06"/><line x1="420" y1="0" x2="420" y2="675" stroke="#6E84AE" stroke-width="1" opacity="0.06"/><line x1="480" y1="0" x2="480" y2="675" stroke="#6E84AE" stroke-width="1" opacity="0.06"/><line x1="540" y1="0" x2="540" y2="675" stroke="#6E84AE" stroke-width="1" opacity="0.06"/><line x1="600" y1="0" x2="600" y2="675" stroke="#6E84AE" stroke-width="1" opacity="0.06"/><line x1="660" y1="0" x2="660" y2="675" stroke="#6E84AE" stroke-width="1" opacity="0.06"/><line x1="720" y1="0" x2="720" y2="675" stroke="#6E84AE" stroke-width="1" opacity="0.06"/><line x1="780" y1="0" x2="780" y2="675" stroke="#6E84AE" stroke-width="1" opacity="0.06"/><line x1="840" y1="0" x2="840" y2="675" stroke="#6E84AE" stroke-width="1" opacity="0.06"/><line x1="900" y1="0" x2="900" y2="675" stroke="#6E84AE" stroke-width="1" opacity="0.06"/><line x1="960" y1="0" x2="960" y2="675" stroke="#6E84AE" stroke-width="1" opacity="0.06"/><line x1="1020" y1="0" x2="1020" y2="675" stroke="#6E84AE" stroke-width="1" opacity="0.06"/><line x1="1080" y1="0" x2="1080" y2="675" stroke="#6E84AE" stroke-width="1" opacity="0.06"/><line x1="1140" y1="0" x2="1140" y2="675" stroke="#6E84AE" stroke-width="1" opacity="0.06"/><line x1="1200" y1="0" x2="1200" y2="675" stroke="#6E84AE" stroke-width="1" opacity="0.06"/><line x1="0" y1="0" x2="1200" y2="0" stroke="#6E84AE" stroke-width="1" opacity="0.06"/><line x1="0" y1="60" x2="1200" y2="60" stroke="#6E84AE" stroke-width="1" opacity="0.06"/><line x1="0" y1="120" x2="1200" y2="120" stroke="#6E84AE" stroke-width="1" opacity="0.06"/><line x1="0" y1="180" x2="1200" y2="180" stroke="#6E84AE" stroke-width="1" opacity="0.06"/><line x1="0" y1="240" x2="1200" y2="240" stroke="#6E84AE" stroke-width="1" opacity="0.06"/><line x1="0" y1="300" x2="1200" y2="300" stroke="#6E84AE" stroke-width="1" opacity="0.06"/><line x1="0" y1="360" x2="1200" y2="360" stroke="#6E84AE" stroke-width="1" opacity="0.06"/><line x1="0" y1="420" x2="1200" y2="420" stroke="#6E84AE" stroke-width="1" opacity="0.06"/><line x1="0" y1="480" x2="1200" y2="480" stroke="#6E84AE" stroke-width="1" opacity="0.06"/><line x1="0" y1="540" x2="1200" y2="540" stroke="#6E84AE" stroke-width="1" opacity="0.06"/><line x1="0" y1="600" x2="1200" y2="600" stroke="#6E84AE" stroke-width="1" opacity="0.06"/><line x1="0" y1="660" x2="1200" y2="660" stroke="#6E84AE" stroke-width="1" opacity="0.06"/><g><circle cx="760" cy="520" r="30" fill="#1c3358" stroke="#B0883C" stroke-width="2.5"/><line x1="760" y1="520" x2="700" y2="380" stroke="#9FB3D6" stroke-width="18" stroke-linecap="round"/><line x1="700" y1="380" x2="820" y2="300" stroke="#9FB3D6" stroke-width="15" stroke-linecap="round"/><line x1="820" y1="300" x2="885" y2="250" stroke="#9FB3D6" stroke-width="11" stroke-linecap="round"/><circle cx="760" cy="520" r="11" fill="#223860" stroke="#B0883C" stroke-width="2.5"/><circle cx="700" cy="380" r="11" fill="#223860" stroke="#B0883C" stroke-width="2.5"/><circle cx="820" cy="300" r="11" fill="#223860" stroke="#B0883C" stroke-width="2.5"/><circle cx="885" cy="250" r="11" fill="#223860" stroke="#B0883C" stroke-width="2.5"/><circle cx="908" cy="230" r="22" fill="url(#gl)"/></g><rect width="1200" height="675" fill="url(#vig)"/></svg>