<svg xmlns="http://www.w3.org/2000/svg" viewBox="0 0 1200 675" preserveAspectRatio="xMidYMid slice"><rect width="1200" height="675" fill="url(#bg)"/><defs><linearGradient id="bg" x1="0" y1="0" x2="1" y2="1"><stop offset="0" stop-color="#0B1830"/><stop offset="0.5" stop-color="#13294B"/><stop offset="1" stop-color="#0A1326"/></linearGradient><radialGradient id="vig" cx="0.5" cy="0.42" r="0.78"><stop offset="0.55" stop-color="#000" stop-opacity="0"/><stop offset="1" stop-color="#050b16" stop-opacity="0.82"/></radialGradient><radialGradient id="gl"><stop offset="0" stop-color="#E6C36B" stop-opacity="0.85"/><stop offset="1" stop-color="#E6C36B" stop-opacity="0"/></radialGradient></defs><g transform="translate(640,150)"><circle r="360" fill="#2EA880" opacity="0.16"/></g><line x1="0" y1="0" x2="0" y2="675" stroke="#6E84AE" stroke-width="1" opacity="0.06"/><line x1="60" y1="0" x2="60" y2="675" stroke="#6E84AE" stroke-width="1" opacity="0.06"/><line x1="120" y1="0" x2="120" y2="675" stroke="#6E84AE" stroke-width="1" opacity="0.06"/><line x1="180" y1="0" x2="180" y2="675" stroke="#6E84AE" stroke-width="1" opacity="0.06"/><line x1="240" y1="0" x2="240" y2="675" stroke="#6E84AE" stroke-width="1" opacity="0.06"/><line x1="300" y1="0" x2="300" y2="675" stroke="#6E84AE" stroke-width="1" opacity="0.06"/><line x1="360" y1="0" x2="360" y2="675" stroke="#6E84AE" stroke-width="1" opacity="0.06"/><line x1="420" y1="0" x2="420" y2="675" stroke="#6E84AE" stroke-width="1" opacity="0.06"/><line x1="480" y1="0" x2="480" y2="675" stroke="#6E84AE" stroke-width="1" opacity="0.06"/><line x1="540" y1="0" x2="540" y2="675" stroke="#6E84AE" stroke-width="1" opacity="0.06"/><line x1="600" y1="0" x2="600" y2="675" stroke="#6E84AE" stroke-width="1" opacity="0.06"/><line x1="660" y1="0" x2="660" y2="675" stroke="#6E84AE" stroke-width="1" opacity="0.06"/><line x1="720" y1="0" x2="720" y2="675" stroke="#6E84AE" stroke-width="1" opacity="0.06"/><line x1="780" y1="0" x2="780" y2="675" stroke="#6E84AE" stroke-width="1" opacity="0.06"/><line x1="840" y1="0" x2="840" y2="675" stroke="#6E84AE" stroke-width="1" opacity="0.06"/><line x1="900" y1="0" x2="900" y2="675" stroke="#6E84AE" stroke-width="1" opacity="0.06"/><line x1="960" y1="0" x2="960" y2="675" stroke="#6E84AE" stroke-width="1" opacity="0.06"/><line x1="1020" y1="0" x2="1020" y2="675" stroke="#6E84AE" stroke-width="1" opacity="0.06"/><line x1="1080" y1="0" x2="1080" y2="675" stroke="#6E84AE" stroke-width="1" opacity="0.06"/><line x1="1140" y1="0" x2="1140" y2="675" stroke="#6E84AE" stroke-width="1" opacity="0.06"/><line x1="1200" y1="0" x2="1200" y2="675" stroke="#6E84AE" stroke-width="1" opacity="0.06"/><line x1="0" y1="0" x2="1200" y2="0" stroke="#6E84AE" stroke-width="1" opacity="0.06"/><line x1="0" y1="60" x2="1200" y2="60" stroke="#6E84AE" stroke-width="1" opacity="0.06"/><line x1="0" y1="120" x2="1200" y2="120" stroke="#6E84AE" stroke-width="1" opacity="0.06"/><line x1="0" y1="180" x2="1200" y2="180" stroke="#6E84AE" stroke-width="1" opacity="0.06"/><line x1="0" y1="240" x2="1200" y2="240" stroke="#6E84AE" stroke-width="1" opacity="0.06"/><line x1="0" y1="300" x2="1200" y2="300" stroke="#6E84AE" stroke-width="1" opacity="0.06"/><line x1="0" y1="360" x2="1200" y2="360" stroke="#6E84AE" stroke-width="1" opacity="0.06"/><line x1="0" y1="420" x2="1200" y2="420" stroke="#6E84AE" stroke-width="1" opacity="0.06"/><line x1="0" y1="480" x2="1200" y2="480" stroke="#6E84AE" stroke-width="1" opacity="0.06"/><line x1="0" y1="540" x2="1200" y2="540" stroke="#6E84AE" stroke-width="1" opacity="0.06"/><line x1="0" y1="600" x2="1200" y2="600" stroke="#6E84AE" stroke-width="1" opacity="0.06"/><line x1="0" y1="660" x2="1200" y2="660" stroke="#6E84AE" stroke-width="1" opacity="0.06"/><circle cx="900" cy="200" r="46" fill="#E6C36B" opacity="0.35"/><circle cx="900" cy="200" r="28" fill="#E6C36B" opacity="0.6"/><rect x="520" y="300" width="50" height="150" rx="8" fill="#13304a" stroke="#2EA880" stroke-width="2.5"/><rect x="537" y="290" width="16" height="12" rx="2" fill="#2EA880"/><rect x="527" y="352" width="36" height="88" rx="4" fill="#2EA880" opacity="0.6"/><rect x="590" y="300" width="50" height="150" rx="8" fill="#13304a" stroke="#2EA880" stroke-width="2.5"/><rect x="607" y="290" width="16" height="12" rx="2" fill="#2EA880"/><rect x="597" y="374" width="36" height="66" rx="4" fill="#2EA880" opacity="0.6"/><rect x="660" y="300" width="50" height="150" rx="8" fill="#13304a" stroke="#2EA880" stroke-width="2.5"/><rect x="677" y="290" width="16" height="12" rx="2" fill="#2EA880"/><rect x="667" y="335" width="36" height="104" rx="4" fill="#2EA880" opacity="0.6"/><rect x="730" y="300" width="50" height="150" rx="8" fill="#13304a" stroke="#2EA880" stroke-width="2.5"/><rect x="747" y="290" width="16" height="12" rx="2" fill="#2EA880"/><rect x="737" y="363" width="36" height="77" rx="4" fill="#2EA880" opacity="0.6"/><rect width="1200" height="675" fill="url(#vig)"/></svg>