<svg xmlns="http://www.w3.org/2000/svg" viewBox="0 0 1200 675" preserveAspectRatio="xMidYMid slice"><rect width="1200" height="675" fill="url(#bg)"/><defs><linearGradient id="bg" x1="0" y1="0" x2="1" y2="1"><stop offset="0" stop-color="#0B1830"/><stop offset="0.5" stop-color="#13294B"/><stop offset="1" stop-color="#0A1326"/></linearGradient><radialGradient id="vig" cx="0.5" cy="0.42" r="0.78"><stop offset="0.55" stop-color="#000" stop-opacity="0"/><stop offset="1" stop-color="#050b16" stop-opacity="0.82"/></radialGradient><radialGradient id="gl"><stop offset="0" stop-color="#E6C36B" stop-opacity="0.85"/><stop offset="1" stop-color="#E6C36B" stop-opacity="0"/></radialGradient></defs><g transform="translate(1010,120)"><circle r="420" fill="#E6C36B" opacity="0.15"/></g><line x1="0" y1="0" x2="0" y2="675" stroke="#6E84AE" stroke-width="1" opacity="0.06"/><line x1="60" y1="0" x2="60" y2="675" stroke="#6E84AE" stroke-width="1" opacity="0.06"/><line x1="120" y1="0" x2="120" y2="675" stroke="#6E84AE" stroke-width="1" opacity="0.06"/><line x1="180" y1="0" x2="180" y2="675" stroke="#6E84AE" stroke-width="1" opacity="0.06"/><line x1="240" y1="0" x2="240" y2="675" stroke="#6E84AE" stroke-width="1" opacity="0.06"/><line x1="300" y1="0" x2="300" y2="675" stroke="#6E84AE" stroke-width="1" opacity="0.06"/><line x1="360" y1="0" x2="360" y2="675" stroke="#6E84AE" stroke-width="1" opacity="0.06"/><line x1="420" y1="0" x2="420" y2="675" stroke="#6E84AE" stroke-width="1" opacity="0.06"/><line x1="480" y1="0" x2="480" y2="675" stroke="#6E84AE" stroke-width="1" opacity="0.06"/><line x1="540" y1="0" x2="540" y2="675" stroke="#6E84AE" stroke-width="1" opacity="0.06"/><line x1="600" y1="0" x2="600" y2="675" stroke="#6E84AE" stroke-width="1" opacity="0.06"/><line x1="660" y1="0" x2="660" y2="675" stroke="#6E84AE" stroke-width="1" opacity="0.06"/><line x1="720" y1="0" x2="720" y2="675" stroke="#6E84AE" stroke-width="1" opacity="0.06"/><line x1="780" y1="0" x2="780" y2="675" stroke="#6E84AE" stroke-width="1" opacity="0.06"/><line x1="840" y1="0" x2="840" y2="675" stroke="#6E84AE" stroke-width="1" opacity="0.06"/><line x1="900" y1="0" x2="900" y2="675" stroke="#6E84AE" stroke-width="1" opacity="0.06"/><line x1="960" y1="0" x2="960" y2="675" stroke="#6E84AE" stroke-width="1" opacity="0.06"/><line x1="1020" y1="0" x2="1020" y2="675" stroke="#6E84AE" stroke-width="1" opacity="0.06"/><line x1="1080" y1="0" x2="1080" y2="675" stroke="#6E84AE" stroke-width="1" opacity="0.06"/><line x1="1140" y1="0" x2="1140" y2="675" stroke="#6E84AE" stroke-width="1" opacity="0.06"/><line x1="1200" y1="0" x2="1200" y2="675" stroke="#6E84AE" stroke-width="1" opacity="0.06"/><line x1="0" y1="0" x2="1200" y2="0" stroke="#6E84AE" stroke-width="1" opacity="0.06"/><line x1="0" y1="60" x2="1200" y2="60" stroke="#6E84AE" stroke-width="1" opacity="0.06"/><line x1="0" y1="120" x2="1200" y2="120" stroke="#6E84AE" stroke-width="1" opacity="0.06"/><line x1="0" y1="180" x2="1200" y2="180" stroke="#6E84AE" stroke-width="1" opacity="0.06"/><line x1="0" y1="240" x2="1200" y2="240" stroke="#6E84AE" stroke-width="1" opacity="0.06"/><line x1="0" y1="300" x2="1200" y2="300" stroke="#6E84AE" stroke-width="1" opacity="0.06"/><line x1="0" y1="360" x2="1200" y2="360" stroke="#6E84AE" stroke-width="1" opacity="0.06"/><line x1="0" y1="420" x2="1200" y2="420" stroke="#6E84AE" stroke-width="1" opacity="0.06"/><line x1="0" y1="480" x2="1200" y2="480" stroke="#6E84AE" stroke-width="1" opacity="0.06"/><line x1="0" y1="540" x2="1200" y2="540" stroke="#6E84AE" stroke-width="1" opacity="0.06"/><line x1="0" y1="600" x2="1200" y2="600" stroke="#6E84AE" stroke-width="1" opacity="0.06"/><line x1="0" y1="660" x2="1200" y2="660" stroke="#6E84AE" stroke-width="1" opacity="0.06"/><circle cx="820" cy="330" r="226" fill="url(#gl)" opacity="0.4"/><path d="M971,368 Q596,199 220,150" fill="none" stroke="#E6C36B" stroke-width="1.4" opacity="0.4"/><circle cx="220" cy="150" r="5" fill="#9FB3D6"/><circle cx="220" cy="150" r="12" fill="url(#gl)"/><path d="M875,436 Q517,388 160,460" fill="none" stroke="#E6C36B" stroke-width="1.4" opacity="0.4"/><circle cx="160" cy="460" r="5" fill="#9FB3D6"/><circle cx="160" cy="460" r="12" fill="url(#gl)"/><path d="M717,416 Q568,418 420,540" fill="none" stroke="#E6C36B" stroke-width="1.4" opacity="0.4"/><circle cx="420" cy="540" r="5" fill="#9FB3D6"/><circle cx="420" cy="540" r="12" fill="url(#gl)"/><path d="M669,292 Q864,191 1060,210" fill="none" stroke="#E6C36B" stroke-width="1.4" opacity="0.4"/><circle cx="1060" cy="210" r="5" fill="#9FB3D6"/><circle cx="1060" cy="210" r="12" fill="url(#gl)"/><path d="M792,219 Q936,285 1080,470" fill="none" stroke="#E6C36B" stroke-width="1.4" opacity="0.4"/><circle cx="1080" cy="470" r="5" fill="#9FB3D6"/><circle cx="1080" cy="470" r="12" fill="url(#gl)"/><path d="M943,258 Q752,139 560,140" fill="none" stroke="#E6C36B" stroke-width="1.4" opacity="0.4"/><circle cx="560" cy="140" r="5" fill="#9FB3D6"/><circle cx="560" cy="140" r="12" fill="url(#gl)"/><circle cx="820" cy="330" r="196" fill="#0e2138" stroke="#9FB3D6" stroke-width="1.5" opacity="0.9"/><ellipse cx="820" cy="330" rx="181" ry="196" fill="none" stroke="#9FB3D6" stroke-width="1" opacity="0.32"/><ellipse cx="820" cy="330" rx="139" ry="196" fill="none" stroke="#9FB3D6" stroke-width="1" opacity="0.32"/><ellipse cx="820" cy="330" rx="75" ry="196" fill="none" stroke="#9FB3D6" stroke-width="1" opacity="0.32"/><line x1="820" y1="134" x2="820" y2="526" stroke="#9FB3D6" stroke-width="1" opacity="0.32"/><ellipse cx="820" cy="330" rx="196" ry="139" fill="none" stroke="#9FB3D6" stroke-width="1" opacity="0.28"/><ellipse cx="820" cy="330" rx="196" ry="196" fill="none" stroke="#9FB3D6" stroke-width="1" opacity="0.28"/><line x1="624" y1="330" x2="1016" y2="330" stroke="#9FB3D6" stroke-width="1" opacity="0.28"/><circle cx="971" cy="368" r="4" fill="#E6C36B"/><circle cx="875" cy="436" r="4" fill="#E6C36B"/><circle cx="717" cy="416" r="4" fill="#E6C36B"/><circle cx="669" cy="292" r="4" fill="#E6C36B"/><circle cx="792" cy="219" r="4" fill="#E6C36B"/><circle cx="943" cy="258" r="4" fill="#E6C36B"/><rect width="1200" height="675" fill="url(#vig)"/></svg>