<svg xmlns="http://www.w3.org/2000/svg" viewBox="0 0 1200 675" preserveAspectRatio="xMidYMid slice"><rect width="1200" height="675" fill="url(#bg)"/><defs><linearGradient id="bg" x1="0" y1="0" x2="1" y2="1"><stop offset="0" stop-color="#0B1830"/><stop offset="0.5" stop-color="#13294B"/><stop offset="1" stop-color="#0A1326"/></linearGradient><radialGradient id="vig" cx="0.5" cy="0.42" r="0.78"><stop offset="0.55" stop-color="#000" stop-opacity="0"/><stop offset="1" stop-color="#050b16" stop-opacity="0.82"/></radialGradient><radialGradient id="gl"><stop offset="0" stop-color="#E6C36B" stop-opacity="0.85"/><stop offset="1" stop-color="#E6C36B" stop-opacity="0"/></radialGradient></defs><g transform="translate(360,120)"><circle r="360" fill="#78C8FF" opacity="0.14"/></g><line x1="0" y1="0" x2="0" y2="675" stroke="#6E84AE" stroke-width="1" opacity="0.06"/><line x1="60" y1="0" x2="60" y2="675" stroke="#6E84AE" stroke-width="1" opacity="0.06"/><line x1="120" y1="0" x2="120" y2="675" stroke="#6E84AE" stroke-width="1" opacity="0.06"/><line x1="180" y1="0" x2="180" y2="675" stroke="#6E84AE" stroke-width="1" opacity="0.06"/><line x1="240" y1="0" x2="240" y2="675" stroke="#6E84AE" stroke-width="1" opacity="0.06"/><line x1="300" y1="0" x2="300" y2="675" stroke="#6E84AE" stroke-width="1" opacity="0.06"/><line x1="360" y1="0" x2="360" y2="675" stroke="#6E84AE" stroke-width="1" opacity="0.06"/><line x1="420" y1="0" x2="420" y2="675" stroke="#6E84AE" stroke-width="1" opacity="0.06"/><line x1="480" y1="0" x2="480" y2="675" stroke="#6E84AE" stroke-width="1" opacity="0.06"/><line x1="540" y1="0" x2="540" y2="675" stroke="#6E84AE" stroke-width="1" opacity="0.06"/><line x1="600" y1="0" x2="600" y2="675" stroke="#6E84AE" stroke-width="1" opacity="0.06"/><line x1="660" y1="0" x2="660" y2="675" stroke="#6E84AE" stroke-width="1" opacity="0.06"/><line x1="720" y1="0" x2="720" y2="675" stroke="#6E84AE" stroke-width="1" opacity="0.06"/><line x1="780" y1="0" x2="780" y2="675" stroke="#6E84AE" stroke-width="1" opacity="0.06"/><line x1="840" y1="0" x2="840" y2="675" stroke="#6E84AE" stroke-width="1" opacity="0.06"/><line x1="900" y1="0" x2="900" y2="675" stroke="#6E84AE" stroke-width="1" opacity="0.06"/><line x1="960" y1="0" x2="960" y2="675" stroke="#6E84AE" stroke-width="1" opacity="0.06"/><line x1="1020" y1="0" x2="1020" y2="675" stroke="#6E84AE" stroke-width="1" opacity="0.06"/><line x1="1080" y1="0" x2="1080" y2="675" stroke="#6E84AE" stroke-width="1" opacity="0.06"/><line x1="1140" y1="0" x2="1140" y2="675" stroke="#6E84AE" stroke-width="1" opacity="0.06"/><line x1="1200" y1="0" x2="1200" y2="675" stroke="#6E84AE" stroke-width="1" opacity="0.06"/><line x1="0" y1="0" x2="1200" y2="0" stroke="#6E84AE" stroke-width="1" opacity="0.06"/><line x1="0" y1="60" x2="1200" y2="60" stroke="#6E84AE" stroke-width="1" opacity="0.06"/><line x1="0" y1="120" x2="1200" y2="120" stroke="#6E84AE" stroke-width="1" opacity="0.06"/><line x1="0" y1="180" x2="1200" y2="180" stroke="#6E84AE" stroke-width="1" opacity="0.06"/><line x1="0" y1="240" x2="1200" y2="240" stroke="#6E84AE" stroke-width="1" opacity="0.06"/><line x1="0" y1="300" x2="1200" y2="300" stroke="#6E84AE" stroke-width="1" opacity="0.06"/><line x1="0" y1="360" x2="1200" y2="360" stroke="#6E84AE" stroke-width="1" opacity="0.06"/><line x1="0" y1="420" x2="1200" y2="420" stroke="#6E84AE" stroke-width="1" opacity="0.06"/><line x1="0" y1="480" x2="1200" y2="480" stroke="#6E84AE" stroke-width="1" opacity="0.06"/><line x1="0" y1="540" x2="1200" y2="540" stroke="#6E84AE" stroke-width="1" opacity="0.06"/><line x1="0" y1="600" x2="1200" y2="600" stroke="#6E84AE" stroke-width="1" opacity="0.06"/><line x1="0" y1="660" x2="1200" y2="660" stroke="#6E84AE" stroke-width="1" opacity="0.06"/><path d="M743,234 L863,234 L863,174" fill="none" stroke="#78C8FF" stroke-width="2" opacity="0.22"/><circle cx="743" cy="234" r="4" fill="#78C8FF" opacity="0.5"/><path d="M228,176 L348,176 L348,116" fill="none" stroke="#78C8FF" stroke-width="2" opacity="0.22"/><circle cx="228" cy="176" r="4" fill="#78C8FF" opacity="0.5"/><path d="M1119,299 L999,299 L999,239" fill="none" stroke="#78C8FF" stroke-width="2" opacity="0.22"/><circle cx="1119" cy="299" r="4" fill="#78C8FF" opacity="0.5"/><path d="M968,508 L848,508 L848,448" fill="none" stroke="#78C8FF" stroke-width="2" opacity="0.22"/><circle cx="968" cy="508" r="4" fill="#78C8FF" opacity="0.5"/><path d="M265,514 L145,514 L145,454" fill="none" stroke="#78C8FF" stroke-width="2" opacity="0.22"/><circle cx="265" cy="514" r="4" fill="#78C8FF" opacity="0.5"/><path d="M537,143 L657,143 L657,83" fill="none" stroke="#78C8FF" stroke-width="2" opacity="0.22"/><circle cx="537" cy="143" r="4" fill="#78C8FF" opacity="0.5"/><path d="M532,127 L412,127 L412,187" fill="none" stroke="#78C8FF" stroke-width="2" opacity="0.22"/><circle cx="532" cy="127" r="4" fill="#78C8FF" opacity="0.5"/><path d="M938,227 L818,227 L818,287" fill="none" stroke="#78C8FF" stroke-width="2" opacity="0.22"/><circle cx="938" cy="227" r="4" fill="#78C8FF" opacity="0.5"/><path d="M450,185 L330,185 L330,245" fill="none" stroke="#78C8FF" stroke-width="2" opacity="0.22"/><circle cx="450" cy="185" r="4" fill="#78C8FF" opacity="0.5"/><path d="M279,144 L159,144 L159,84" fill="none" stroke="#78C8FF" stroke-width="2" opacity="0.22"/><circle cx="279" cy="144" r="4" fill="#78C8FF" opacity="0.5"/><path d="M1096,517 L1216,517 L1216,577" fill="none" stroke="#78C8FF" stroke-width="2" opacity="0.22"/><circle cx="1096" cy="517" r="4" fill="#78C8FF" opacity="0.5"/><path d="M1008,450 L1128,450 L1128,390" fill="none" stroke="#78C8FF" stroke-width="2" opacity="0.22"/><circle cx="1008" cy="450" r="4" fill="#78C8FF" opacity="0.5"/><path d="M448,329 L328,329 L328,389" fill="none" stroke="#78C8FF" stroke-width="2" opacity="0.22"/><circle cx="448" cy="329" r="4" fill="#78C8FF" opacity="0.5"/><path d="M1093,431 L1213,431 L1213,491" fill="none" stroke="#78C8FF" stroke-width="2" opacity="0.22"/><circle cx="1093" cy="431" r="4" fill="#78C8FF" opacity="0.5"/><line x1="550" y1="260" x2="550" y2="240" stroke="#78C8FF" stroke-width="3"/><line x1="550" y1="400" x2="550" y2="420" stroke="#78C8FF" stroke-width="3"/><line x1="530" y1="280" x2="510" y2="280" stroke="#78C8FF" stroke-width="3"/><line x1="670" y1="280" x2="690" y2="280" stroke="#78C8FF" stroke-width="3"/><line x1="570" y1="260" x2="570" y2="240" stroke="#78C8FF" stroke-width="3"/><line x1="570" y1="400" x2="570" y2="420" stroke="#78C8FF" stroke-width="3"/><line x1="530" y1="300" x2="510" y2="300" stroke="#78C8FF" stroke-width="3"/><line x1="670" y1="300" x2="690" y2="300" stroke="#78C8FF" stroke-width="3"/><line x1="590" y1="260" x2="590" y2="240" stroke="#78C8FF" stroke-width="3"/><line x1="590" y1="400" x2="590" y2="420" stroke="#78C8FF" stroke-width="3"/><line x1="530" y1="320" x2="510" y2="320" stroke="#78C8FF" stroke-width="3"/><line x1="670" y1="320" x2="690" y2="320" stroke="#78C8FF" stroke-width="3"/><line x1="610" y1="260" x2="610" y2="240" stroke="#78C8FF" stroke-width="3"/><line x1="610" y1="400" x2="610" y2="420" stroke="#78C8FF" stroke-width="3"/><line x1="530" y1="340" x2="510" y2="340" stroke="#78C8FF" stroke-width="3"/><line x1="670" y1="340" x2="690" y2="340" stroke="#78C8FF" stroke-width="3"/><line x1="630" y1="260" x2="630" y2="240" stroke="#78C8FF" stroke-width="3"/><line x1="630" y1="400" x2="630" y2="420" stroke="#78C8FF" stroke-width="3"/><line x1="530" y1="360" x2="510" y2="360" stroke="#78C8FF" stroke-width="3"/><line x1="670" y1="360" x2="690" y2="360" stroke="#78C8FF" stroke-width="3"/><line x1="650" y1="260" x2="650" y2="240" stroke="#78C8FF" stroke-width="3"/><line x1="650" y1="400" x2="650" y2="420" stroke="#78C8FF" stroke-width="3"/><line x1="530" y1="380" x2="510" y2="380" stroke="#78C8FF" stroke-width="3"/><line x1="670" y1="380" x2="690" y2="380" stroke="#78C8FF" stroke-width="3"/><rect x="530" y="260" width="140" height="140" rx="14" fill="#13294b" stroke="#78C8FF" stroke-width="3"/><rect x="560" y="290" width="80" height="80" rx="8" fill="none" stroke="#78C8FF" stroke-width="2" opacity="0.6"/><rect width="1200" height="675" fill="url(#vig)"/></svg>