<svg xmlns="http://www.w3.org/2000/svg" viewBox="0 0 1200 675" preserveAspectRatio="xMidYMid slice"><rect width="1200" height="675" fill="url(#bg)"/><defs><linearGradient id="bg" x1="0" y1="0" x2="1" y2="1"><stop offset="0" stop-color="#0B1830"/><stop offset="0.5" stop-color="#13294B"/><stop offset="1" stop-color="#0A1326"/></linearGradient><radialGradient id="vig" cx="0.5" cy="0.42" r="0.78"><stop offset="0.55" stop-color="#000" stop-opacity="0"/><stop offset="1" stop-color="#050b16" stop-opacity="0.82"/></radialGradient><radialGradient id="gl"><stop offset="0" stop-color="#E6C36B" stop-opacity="0.85"/><stop offset="1" stop-color="#E6C36B" stop-opacity="0"/></radialGradient></defs><g transform="translate(1000,90)"><circle r="420" fill="#E6C36B" opacity="0.15"/></g><g transform="translate(120,640)"><circle r="360" fill="#B23E4A" opacity="0.24"/></g><line x1="0" y1="0" x2="0" y2="675" stroke="#6E84AE" stroke-width="1" opacity="0.06"/><line x1="60" y1="0" x2="60" y2="675" stroke="#6E84AE" stroke-width="1" opacity="0.06"/><line x1="120" y1="0" x2="120" y2="675" stroke="#6E84AE" stroke-width="1" opacity="0.06"/><line x1="180" y1="0" x2="180" y2="675" stroke="#6E84AE" stroke-width="1" opacity="0.06"/><line x1="240" y1="0" x2="240" y2="675" stroke="#6E84AE" stroke-width="1" opacity="0.06"/><line x1="300" y1="0" x2="300" y2="675" stroke="#6E84AE" stroke-width="1" opacity="0.06"/><line x1="360" y1="0" x2="360" y2="675" stroke="#6E84AE" stroke-width="1" opacity="0.06"/><line x1="420" y1="0" x2="420" y2="675" stroke="#6E84AE" stroke-width="1" opacity="0.06"/><line x1="480" y1="0" x2="480" y2="675" stroke="#6E84AE" stroke-width="1" opacity="0.06"/><line x1="540" y1="0" x2="540" y2="675" stroke="#6E84AE" stroke-width="1" opacity="0.06"/><line x1="600" y1="0" x2="600" y2="675" stroke="#6E84AE" stroke-width="1" opacity="0.06"/><line x1="660" y1="0" x2="660" y2="675" stroke="#6E84AE" stroke-width="1" opacity="0.06"/><line x1="720" y1="0" x2="720" y2="675" stroke="#6E84AE" stroke-width="1" opacity="0.06"/><line x1="780" y1="0" x2="780" y2="675" stroke="#6E84AE" stroke-width="1" opacity="0.06"/><line x1="840" y1="0" x2="840" y2="675" stroke="#6E84AE" stroke-width="1" opacity="0.06"/><line x1="900" y1="0" x2="900" y2="675" stroke="#6E84AE" stroke-width="1" opacity="0.06"/><line x1="960" y1="0" x2="960" y2="675" stroke="#6E84AE" stroke-width="1" opacity="0.06"/><line x1="1020" y1="0" x2="1020" y2="675" stroke="#6E84AE" stroke-width="1" opacity="0.06"/><line x1="1080" y1="0" x2="1080" y2="675" stroke="#6E84AE" stroke-width="1" opacity="0.06"/><line x1="1140" y1="0" x2="1140" y2="675" stroke="#6E84AE" stroke-width="1" opacity="0.06"/><line x1="1200" y1="0" x2="1200" y2="675" stroke="#6E84AE" stroke-width="1" opacity="0.06"/><line x1="0" y1="0" x2="1200" y2="0" stroke="#6E84AE" stroke-width="1" opacity="0.06"/><line x1="0" y1="60" x2="1200" y2="60" stroke="#6E84AE" stroke-width="1" opacity="0.06"/><line x1="0" y1="120" x2="1200" y2="120" stroke="#6E84AE" stroke-width="1" opacity="0.06"/><line x1="0" y1="180" x2="1200" y2="180" stroke="#6E84AE" stroke-width="1" opacity="0.06"/><line x1="0" y1="240" x2="1200" y2="240" stroke="#6E84AE" stroke-width="1" opacity="0.06"/><line x1="0" y1="300" x2="1200" y2="300" stroke="#6E84AE" stroke-width="1" opacity="0.06"/><line x1="0" y1="360" x2="1200" y2="360" stroke="#6E84AE" stroke-width="1" opacity="0.06"/><line x1="0" y1="420" x2="1200" y2="420" stroke="#6E84AE" stroke-width="1" opacity="0.06"/><line x1="0" y1="480" x2="1200" y2="480" stroke="#6E84AE" stroke-width="1" opacity="0.06"/><line x1="0" y1="540" x2="1200" y2="540" stroke="#6E84AE" stroke-width="1" opacity="0.06"/><line x1="0" y1="600" x2="1200" y2="600" stroke="#6E84AE" stroke-width="1" opacity="0.06"/><line x1="0" y1="660" x2="1200" y2="660" stroke="#6E84AE" stroke-width="1" opacity="0.06"/><rect x="70" y="525" width="46" height="150" rx="3" fill="#0e2038" opacity="0.5"/><rect x="130" y="475" width="46" height="200" rx="3" fill="#0e2038" opacity="0.5"/><rect x="185" y="545" width="46" height="130" rx="3" fill="#0e2038" opacity="0.5"/><rect x="240" y="445" width="46" height="230" rx="3" fill="#0e2038" opacity="0.5"/><rect x="300" y="505" width="46" height="170" rx="3" fill="#0e2038" opacity="0.5"/><rect x="360" y="415" width="46" height="260" rx="3" fill="#0e2038" opacity="0.5"/><rect x="420" y="535" width="46" height="140" rx="3" fill="#0e2038" opacity="0.5"/><rect x="480" y="465" width="46" height="210" rx="3" fill="#0e2038" opacity="0.5"/><path d="M120,600 C400,560 520,420 980,250" fill="none" stroke="#E6C36B" stroke-width="3" stroke-dasharray="2 9" opacity="0.7"/><rect x="640" y="560" width="64" height="52" rx="4" fill="#15294a" stroke="#B0883C" stroke-width="1.5" opacity="0.9"/><rect x="710" y="508" width="64" height="104" rx="4" fill="#15294a" stroke="#B0883C" stroke-width="1.5" opacity="0.9"/><rect x="780" y="456" width="64" height="156" rx="4" fill="#15294a" stroke="#B0883C" stroke-width="1.5" opacity="0.9"/><rect x="850" y="404" width="64" height="208" rx="4" fill="#15294a" stroke="#B0883C" stroke-width="1.5" opacity="0.9"/><rect x="920" y="352" width="64" height="260" rx="4" fill="#15294a" stroke="#B0883C" stroke-width="1.5" opacity="0.9"/><g transform="translate(980,150)"><circle cx="0" cy="0" r="16" fill="#9FB3D6"/><path d="M-15,70 Q0,28 15,70 Z" fill="#9FB3D6"/></g><g transform="translate(980,96)"><circle r="30" fill="url(#gl)"/><path d="M0,-16 L4,-4 L17,-4 L6,3 L10,15 L0,8 L-10,15 L-6,3 L-17,-4 L-4,-4 Z" fill="#E6C36B"/></g><rect width="1200" height="675" fill="url(#vig)"/></svg>